<?xml version="1.0" encoding="UTF-8" standalone="no"?>
<!-- Created with Inkscape (http://www.inkscape.org/) -->

<svg
   xmlns:dc="http://purl.org/dc/elements/1.1/"
   xmlns:cc="http://creativecommons.org/ns#"
   xmlns:rdf="http://www.w3.org/1999/02/22-rdf-syntax-ns#"
   xmlns:svg="http://www.w3.org/2000/svg"
   xmlns="http://www.w3.org/2000/svg"
   xmlns:xlink="http://www.w3.org/1999/xlink"
   xmlns:sodipodi="http://sodipodi.sourceforge.net/DTD/sodipodi-0.dtd"
   xmlns:inkscape="http://www.inkscape.org/namespaces/inkscape"
   id="svg4220"
   version="1.1"
   inkscape:version="0.91 r13725"
   width="468.75"
   height="468.75"
   viewBox="0 0 468.75 468.75"
   sodipodi:docname="smashLogo.svg">
  <metadata
     id="metadata4226">
    <rdf:RDF>
      <cc:Work
         rdf:about="">
        <dc:format>image/svg+xml</dc:format>
        <dc:type
           rdf:resource="http://purl.org/dc/dcmitype/StillImage" />
        <dc:title></dc:title>
      </cc:Work>
    </rdf:RDF>
  </metadata>
  <defs
     id="defs4224">
    <linearGradient
       inkscape:collect="always"
       id="linearGradient4804">
      <stop
         style="stop-color:#e70000;stop-opacity:1"
         offset="0"
         id="stop4806" />
      <stop
         id="stop4814"
         offset="0.58661425"
         style="stop-color:#ffd500;stop-opacity:1" />
      <stop
         id="stop4812"
         offset="0.67862028"
         style="stop-color:#00009b;stop-opacity:1" />
      <stop
         style="stop-color:#00006e;stop-opacity:1"
         offset="1"
         id="stop4808" />
    </linearGradient>
    <linearGradient
       inkscape:collect="always"
       xlink:href="#linearGradient4804"
       id="linearGradient4810"
       x1="208.21202"
       y1="28.189014"
       x2="208.21202"
       y2="403.75244"
       gradientUnits="userSpaceOnUse" />
    <filter
       inkscape:collect="always"
       style="color-interpolation-filters:sRGB"
       id="filter4942"
       x="-0.059963881"
       width="1.1199278"
       y="-0.060036162"
       height="1.1200723">
      <feGaussianBlur
         inkscape:collect="always"
         stdDeviation="8.9974193"
         id="feGaussianBlur4944" />
    </filter>
    <linearGradient
       inkscape:collect="always"
       xlink:href="#linearGradient4804"
       id="linearGradient4946"
       gradientUnits="userSpaceOnUse"
       x1="208.21202"
       y1="28.189014"
       x2="208.21202"
       y2="403.75244" />
    <linearGradient
       inkscape:collect="always"
       xlink:href="#linearGradient4804"
       id="linearGradient4948"
       gradientUnits="userSpaceOnUse"
       x1="208.21202"
       y1="28.189014"
       x2="208.21202"
       y2="403.75244" />
    <linearGradient
       inkscape:collect="always"
       xlink:href="#linearGradient4804"
       id="linearGradient4950"
       gradientUnits="userSpaceOnUse"
       x1="208.21202"
       y1="28.189014"
       x2="208.21202"
       y2="403.75244" />
    <linearGradient
       inkscape:collect="always"
       xlink:href="#linearGradient4804"
       id="linearGradient4952"
       gradientUnits="userSpaceOnUse"
       x1="208.21202"
       y1="28.189014"
       x2="208.21202"
       y2="403.75244" />
    <linearGradient
       inkscape:collect="always"
       xlink:href="#linearGradient4804"
       id="linearGradient4954"
       gradientUnits="userSpaceOnUse"
       x1="208.21202"
       y1="28.189014"
       x2="208.21202"
       y2="403.75244" />
    <linearGradient
       inkscape:collect="always"
       xlink:href="#linearGradient4804"
       id="linearGradient4956"
       gradientUnits="userSpaceOnUse"
       x1="208.21202"
       y1="28.189014"
       x2="208.21202"
       y2="403.75244" />
    <linearGradient
       inkscape:collect="always"
       xlink:href="#linearGradient4804"
       id="linearGradient4958"
       gradientUnits="userSpaceOnUse"
       x1="208.21202"
       y1="28.189014"
       x2="208.21202"
       y2="403.75244" />
    <linearGradient
       inkscape:collect="always"
       xlink:href="#linearGradient4804"
       id="linearGradient4960"
       gradientUnits="userSpaceOnUse"
       x1="208.21202"
       y1="28.189014"
       x2="208.21202"
       y2="403.75244" />
    <linearGradient
       inkscape:collect="always"
       xlink:href="#linearGradient4804"
       id="linearGradient4962"
       gradientUnits="userSpaceOnUse"
       x1="208.21202"
       y1="28.189014"
       x2="208.21202"
       y2="403.75244" />
  </defs>
  <sodipodi:namedview
     pagecolor="#ffffff"
     bordercolor="#666666"
     borderopacity="1"
     objecttolerance="10"
     gridtolerance="10"
     guidetolerance="10"
     inkscape:pageopacity="0"
     inkscape:pageshadow="2"
     inkscape:window-width="1827"
     inkscape:window-height="1051"
     id="namedview4222"
     showgrid="false"
     showguides="true"
     inkscape:guide-bbox="true"
     inkscape:zoom="1.0069333"
     inkscape:cx="212.03546"
     inkscape:cy="302.38855"
     inkscape:window-x="1911"
     inkscape:window-y="-9"
     inkscape:window-maximized="1"
     inkscape:current-layer="svg4220">
    <sodipodi:guide
       position="315.81038,195.14698"
       orientation="0,1"
       id="guide4796" />
    <sodipodi:guide
       position="272.6099,152.44306"
       orientation="0,1"
       id="guide4798" />
    <sodipodi:guide
       position="177.27092,303.89301"
       orientation="1,0"
       id="guide4800" />
    <sodipodi:guide
       position="108.74603,310.84481"
       orientation="1,0"
       id="guide4802" />
  </sodipodi:namedview>
  <g
     transform="matrix(1.1840375,0,0,1.1840375,-33.146023,-21.375288)"
     id="g4786"
     style="fill:none;fill-opacity:0.24669602;stroke:url(#linearGradient4954);stroke-width:16.13301277;stroke-linecap:butt;stroke-linejoin:round;stroke-miterlimit:7;stroke-dasharray:none;stroke-opacity:1">
    <path
       inkscape:connector-curvature="0"
       style="fill:none;fill-opacity:0.24669602;stroke:url(#linearGradient4946);stroke-width:14.62381649;stroke-linecap:butt;stroke-linejoin:round;stroke-miterlimit:7;stroke-dasharray:none;stroke-opacity:1"
       d="m 212.20596,395.29683 c -8.50074,-0.88394 -21.94382,-3.23622 -23.92322,-4.1861 -1.45012,-0.69591 -1.52909,-3.76113 -1.3165,-51.1054 l 0.22615,-50.36509 103.34554,-0.20909 103.34554,-0.20909 0,1.90167 c 0,2.70599 -10.27753,21.84015 -16.43959,30.6063 -7.46579,10.6209 -14.5476,18.57374 -24.93364,28.00039 -14.68411,13.3277 -26.50189,21.10579 -45.07718,29.66838 -29.09675,13.41263 -63.65093,19.18141 -95.2271,15.89803 z"
       id="path4788" />
    <path
       inkscape:connector-curvature="0"
       style="fill:none;fill-opacity:0.24669602;stroke:url(#linearGradient4948);stroke-width:13.46218014;stroke-linecap:butt;stroke-linejoin:round;stroke-miterlimit:7;stroke-dasharray:none;stroke-opacity:1"
       d="M 109.52362,360.467 C 96.669598,350.53592 82.767701,335.06234 73.419817,320.2815 68.033444,311.76456 59.0651,293.20256 59.0651,290.57118 l 0,-1.85179 29.313392,0.20912 29.313388,0.20913 0.19904,38.13125 c 0.16986,32.5435 0.0391,38.13128 -0.8916,38.13128 -0.59984,0 -3.96391,-2.21994 -7.4757,-4.93317 z"
       id="path4790" />
    <path
       inkscape:connector-curvature="0"
       style="fill:none;fill-opacity:0.24669602;stroke:url(#linearGradient4950);stroke-width:14.15576744;stroke-linecap:butt;stroke-linejoin:round;stroke-miterlimit:7;stroke-dasharray:none;stroke-opacity:1"
       d="m 49.020339,240.31434 c -1.059316,-1.4793 -2.53834,-18.23559 -2.535706,-28.72771 0.0097,-38.89412 12.688875,-78.68706 34.816487,-109.27037 9.200885,-12.716849 31.35565,-34.76887 34.93085,-34.76887 0.94706,0 1.07586,12.330905 0.9057,86.70486 l -0.19839,86.70487 -33.567172,0.22646 c -26.265855,0.17719 -33.737834,-0.0118 -34.351769,-0.86924 z"
       id="path4792" />
    <path
       inkscape:connector-curvature="0"
       style="fill:none;fill-opacity:0.24669602;stroke:url(#linearGradient4952);stroke-width:15.04849815;stroke-linecap:butt;stroke-linejoin:round;stroke-miterlimit:7;stroke-dasharray:none;stroke-opacity:1"
       d="m 188.14266,240.17476 c -0.32125,-0.32003 -0.5841,-44.90726 -0.5841,-99.08272 l 0,-98.500836 1.97133,-0.818186 c 2.91588,-1.210204 14.81008,-3.322723 24.49765,-4.350998 43.25345,-4.591096 88.96169,8.473025 124.6667,35.631677 7.43182,5.652933 22.45197,20.324691 28.71938,28.053243 24.90374,30.70958 39.17356,70.66683 39.18456,109.72154 0.003,10.50606 -1.66044,27.35929 -2.84619,28.83713 -0.69171,0.8621 -23.34133,1.09102 -107.9503,1.09102 -58.89121,0 -107.33777,-0.26184 -107.65903,-0.58187 z"
       id="path4794" />
  </g>
  <g
     style="fill:none;fill-opacity:0.24669602;stroke:url(#linearGradient4810);stroke-width:16.13301277;stroke-linecap:butt;stroke-linejoin:round;stroke-miterlimit:7;stroke-dasharray:none;stroke-opacity:1;filter:url(#filter4942)"
     id="g4868"
     transform="matrix(1.1707451,0,0,1.1707451,-29.623072,-19.027374)">
    <path
       id="path4870"
       d="m 212.20596,395.29683 c -8.50074,-0.88394 -21.94382,-3.23622 -23.92322,-4.1861 -1.45012,-0.69591 -1.52909,-3.76113 -1.3165,-51.1054 l 0.22615,-50.36509 103.34554,-0.20909 103.34554,-0.20909 0,1.90167 c 0,2.70599 -10.27753,21.84015 -16.43959,30.6063 -7.46579,10.6209 -14.5476,18.57374 -24.93364,28.00039 -14.68411,13.3277 -26.50189,21.10579 -45.07718,29.66838 -29.09675,13.41263 -63.65093,19.18141 -95.2271,15.89803 z"
       style="fill:none;fill-opacity:0.24669602;stroke:url(#linearGradient4956);stroke-width:14.62381649;stroke-linecap:butt;stroke-linejoin:round;stroke-miterlimit:7;stroke-dasharray:none;stroke-opacity:1"
       inkscape:connector-curvature="0" />
    <path
       id="path4872"
       d="M 109.52362,360.467 C 96.669598,350.53592 82.767701,335.06234 73.419817,320.2815 68.033444,311.76456 59.0651,293.20256 59.0651,290.57118 l 0,-1.85179 29.313392,0.20912 29.313388,0.20913 0.19904,38.13125 c 0.16986,32.5435 0.0391,38.13128 -0.8916,38.13128 -0.59984,0 -3.96391,-2.21994 -7.4757,-4.93317 z"
       style="fill:none;fill-opacity:0.24669602;stroke:url(#linearGradient4958);stroke-width:13.46218014;stroke-linecap:butt;stroke-linejoin:round;stroke-miterlimit:7;stroke-dasharray:none;stroke-opacity:1"
       inkscape:connector-curvature="0" />
    <path
       id="path4874"
       d="m 49.020339,240.31434 c -1.059316,-1.4793 -2.53834,-18.23559 -2.535706,-28.72771 0.0097,-38.89412 12.688875,-78.68706 34.816487,-109.27037 9.200885,-12.716849 31.35565,-34.76887 34.93085,-34.76887 0.94706,0 1.07586,12.330905 0.9057,86.70486 l -0.19839,86.70487 -33.567172,0.22646 c -26.265855,0.17719 -33.737834,-0.0118 -34.351769,-0.86924 z"
       style="fill:none;fill-opacity:0.24669602;stroke:url(#linearGradient4960);stroke-width:14.15576744;stroke-linecap:butt;stroke-linejoin:round;stroke-miterlimit:7;stroke-dasharray:none;stroke-opacity:1"
       inkscape:connector-curvature="0" />
    <path
       id="path4876"
       d="m 188.14266,240.17476 c -0.32125,-0.32003 -0.5841,-44.90726 -0.5841,-99.08272 l 0,-98.500836 1.97133,-0.818186 c 2.91588,-1.210204 14.81008,-3.322723 24.49765,-4.350998 43.25345,-4.591096 88.96169,8.473025 124.6667,35.631677 7.43182,5.652933 22.45197,20.324691 28.71938,28.053243 24.90374,30.70958 39.17356,70.66683 39.18456,109.72154 0.003,10.50606 -1.66044,27.35929 -2.84619,28.83713 -0.69171,0.8621 -23.34133,1.09102 -107.9503,1.09102 -58.89121,0 -107.33777,-0.26184 -107.65903,-0.58187 z"
       style="fill:none;fill-opacity:0.24669602;stroke:url(#linearGradient4962);stroke-width:15.04849815;stroke-linecap:butt;stroke-linejoin:round;stroke-miterlimit:7;stroke-dasharray:none;stroke-opacity:1"
       inkscape:connector-curvature="0" />
  </g>
</svg>
